<?xml version="1.0" encoding="UTF-8" standalone="no"?>
<!-- Created with Inkscape (http://www.inkscape.org/) -->

<svg
   xmlns:dc="http://purl.org/dc/elements/1.1/"
   xmlns:cc="http://creativecommons.org/ns#"
   xmlns:rdf="http://www.w3.org/1999/02/22-rdf-syntax-ns#"
   xmlns:svg="http://www.w3.org/2000/svg"
   xmlns="http://www.w3.org/2000/svg"
   xmlns:sodipodi="http://sodipodi.sourceforge.net/DTD/sodipodi-0.dtd"
   xmlns:inkscape="http://www.inkscape.org/namespaces/inkscape"
   height="60"
   width="60"
   viewBox="0 0 60 60"
   id="svg6367"
   version="1.1"
   inkscape:version="0.91 r13725"
   sodipodi:docname="logo.svg">
  <defs
     id="defs6373">
    <clipPath
       clipPathUnits="userSpaceOnUse"
       id="clipPath3197">
      <path
         d="m 483.417,188.479 102.192,0 0,103.417 -102.192,0 0,-103.417 z"
         id="path3199"
         inkscape:connector-curvature="0" />
    </clipPath>
  </defs>
  <sodipodi:namedview
     pagecolor="#ffffff"
     bordercolor="#666666"
     borderopacity="1"
     objecttolerance="10"
     gridtolerance="10"
     guidetolerance="10"
     inkscape:pageopacity="0"
     inkscape:pageshadow="2"
     inkscape:window-width="1600"
     inkscape:window-height="873"
     id="namedview6371"
     showgrid="false"
     inkscape:showpageshadow="false"
     units="px"
     inkscape:zoom="0.63429568"
     inkscape:cx="-512.13694"
     inkscape:cy="171.95511"
     inkscape:window-x="0"
     inkscape:window-y="0"
     inkscape:window-maximized="1"
     inkscape:current-layer="svg6367" />
  <metadata
     id="metadata6369">
    <rdf:RDF>
      <cc:Work
         rdf:about="">
        <dc:format>image/svg+xml</dc:format>
        <dc:type
           rdf:resource="http://purl.org/dc/dcmitype/StillImage" />
        <dc:title></dc:title>
      </cc:Work>
    </rdf:RDF>
  </metadata>
  <g
     id="g3193"
     transform="matrix(0.58294823,0,0,-0.57649635,-281.21823,168.37677)">
    <g
       id="g3195"
       clip-path="url(#clipPath3197)">
      <g
         id="g3201"
         transform="translate(524.6126,219.5743)">
        <path
           d="m 0,0 c 0,-0.045 -0.066,-0.159 -0.096,-0.159 -0.044,0 -0.155,0.114 -0.392,0.114 -0.224,0 -0.386,-0.12 -0.386,-0.338 0,-0.218 0.191,-0.275 0.407,-0.357 0.267,-0.102 0.565,-0.221 0.565,-0.628 0,-0.359 -0.259,-0.581 -0.663,-0.581 -0.35,0 -0.62,0.138 -0.62,0.22 0,0.047 0.072,0.161 0.104,0.161 0.039,0 0.207,-0.153 0.516,-0.153 0.227,0 0.392,0.139 0.392,0.353 0,0.24 -0.221,0.316 -0.453,0.407 -0.255,0.098 -0.52,0.197 -0.52,0.59 0,0.324 0.262,0.555 0.664,0.555 C -0.311,0.184 0,0.107 0,0"
           style="fill:#ffffff;fill-opacity:1;fill-rule:nonzero;stroke:none"
           id="path3203"
           inkscape:connector-curvature="0" />
      </g>
      <g
         id="g3205"
         transform="translate(525.9675,219.6792)">
        <path
           d="m 0,0 0,-1.976 c 0,-0.041 -0.037,-0.067 -0.12,-0.067 l -0.024,0 c -0.084,0 -0.12,0.026 -0.12,0.067 l 0,1.976 c 0,0.043 0.036,0.066 0.12,0.066 l 0.024,0 C -0.037,0.066 0,0.043 0,0"
           style="fill:#ffffff;fill-opacity:1;fill-rule:nonzero;stroke:none"
           id="path3207"
           inkscape:connector-curvature="0" />
      </g>
      <g
         id="g3209"
         transform="translate(528.7399,219.6792)">
        <path
           d="m 0,0 0,-1.976 c 0,-0.041 -0.036,-0.067 -0.119,-0.067 l -0.061,0 c -0.057,0 -0.087,0.016 -0.105,0.043 l -0.988,1.493 -0.08,0.152 0,-1.621 c 0,-0.041 -0.036,-0.067 -0.119,-0.067 l -0.021,0 c -0.084,0 -0.121,0.026 -0.121,0.067 l 0,1.976 c 0,0.043 0.037,0.066 0.121,0.066 l 0.061,0 c 0.067,0 0.097,-0.015 0.127,-0.056 l 0.954,-1.444 0.09,-0.167 0,1.601 c 0,0.043 0.037,0.066 0.12,0.066 l 0.022,0 C -0.036,0.066 0,0.043 0,0"
           style="fill:#ffffff;fill-opacity:1;fill-rule:nonzero;stroke:none"
           id="path3211"
           inkscape:connector-curvature="0" />
      </g>
      <g
         id="g3213"
         transform="translate(531.3224,219.5723)">
        <path
           d="m 0,0 c 0,-0.052 -0.063,-0.175 -0.102,-0.175 -0.032,0 -0.177,0.132 -0.464,0.132 -0.479,0 -0.704,-0.251 -0.704,-0.841 0,-0.575 0.222,-0.836 0.692,-0.836 0.308,0 0.476,0.15 0.515,0.15 0.039,0 0.105,-0.124 0.105,-0.161 0,-0.08 -0.27,-0.216 -0.62,-0.216 -0.656,0 -0.964,0.336 -0.964,1.066 0,0.716 0.329,1.067 0.97,1.067 C -0.276,0.186 0,0.08 0,0"
           style="fill:#ffffff;fill-opacity:1;fill-rule:nonzero;stroke:none"
           id="path3215"
           inkscape:connector-curvature="0" />
      </g>
      <g
         id="g3217"
         transform="translate(533.5475,219.6491)">
        <path
           d="M 0,0 0,-0.048 C 0,-0.11 -0.018,-0.137 -0.059,-0.137 l -0.871,0 0,-0.684 0.781,0 c 0.042,0 0.06,-0.026 0.06,-0.089 l 0,-0.047 c 0,-0.064 -0.018,-0.091 -0.06,-0.091 l -0.781,0 0,-0.73 0.873,0 c 0.042,0 0.06,-0.026 0.06,-0.09 l 0,-0.048 c 0,-0.062 -0.018,-0.091 -0.06,-0.091 l -1.046,0 c -0.063,0 -0.091,0.029 -0.091,0.091 l 0,1.916 c 0,0.063 0.028,0.089 0.091,0.089 l 1.044,0 C -0.018,0.089 0,0.063 0,0"
           style="fill:#ffffff;fill-opacity:1;fill-rule:nonzero;stroke:none"
           id="path3219"
           inkscape:connector-curvature="0" />
      </g>
      <g
         id="g3221"
         transform="translate(537.0123,219.2478)">
        <path
           d="m 0,0 c 0,-0.287 -0.08,-0.386 -0.684,-1.125 l -0.218,-0.266 0.861,0 c 0.041,0 0.061,-0.028 0.061,-0.09 l 0,-0.033 C 0.02,-1.577 0,-1.605 -0.041,-1.605 l -1.143,0 c -0.037,0 -0.06,0.077 -0.06,0.133 0,0.02 0.004,0.042 0.012,0.051 l 0.773,0.969 c 0.188,0.249 0.203,0.308 0.203,0.434 0,0.191 -0.142,0.312 -0.375,0.312 -0.271,0 -0.397,-0.152 -0.448,-0.152 -0.029,0 -0.097,0.104 -0.097,0.149 0,0.125 0.358,0.219 0.54,0.219 C -0.244,0.51 0,0.314 0,0"
           style="fill:#ffffff;fill-opacity:1;fill-rule:nonzero;stroke:none"
           id="path3223"
           inkscape:connector-curvature="0" />
      </g>
      <g
         id="g3225"
         transform="translate(538.1888,218.6921)">
        <path
           d="m 0,0 c 0,-0.626 0.209,-0.851 0.426,-0.851 0.215,0 0.43,0.225 0.43,0.851 0,0.626 -0.215,0.85 -0.43,0.85 C 0.209,0.85 0,0.626 0,0 m 1.11,0 c 0,-0.746 -0.322,-1.067 -0.684,-1.067 -0.36,0 -0.682,0.321 -0.682,1.067 0,0.745 0.322,1.066 0.682,1.066 C 0.788,1.066 1.11,0.745 1.11,0"
           style="fill:#ffffff;fill-opacity:1;fill-rule:nonzero;stroke:none"
           id="path3227"
           inkscape:connector-curvature="0" />
      </g>
      <g
         id="g3229"
         transform="translate(540.9803,219.6821)">
        <path
           d="m 0,0 0,-1.823 0.443,0 c 0.042,0 0.059,-0.026 0.059,-0.09 l 0,-0.036 c 0,-0.062 -0.017,-0.091 -0.059,-0.091 l -1.215,0 c -0.042,0 -0.061,0.029 -0.061,0.091 l 0,0.036 c 0,0.064 0.019,0.09 0.061,0.09 l 0.52,0 0,1.614 -0.53,-0.089 c -0.042,0 -0.06,0.097 -0.06,0.153 0,0.032 0.018,0.047 0.055,0.056 l 0.693,0.152 C -0.049,0.063 0,0.036 0,0"
           style="fill:#ffffff;fill-opacity:1;fill-rule:nonzero;stroke:none"
           id="path3231"
           inkscape:connector-curvature="0" />
      </g>
      <g
         id="g3233"
         transform="translate(542.6379,218.5386)">
        <path
           d="m 0,0 c -0.007,-0.061 -0.013,-0.122 -0.013,-0.18 0,-0.419 0.213,-0.513 0.402,-0.513 0.161,0 0.377,0.118 0.377,0.395 0,0.292 -0.196,0.401 -0.393,0.401 C 0.214,0.103 0.084,0.048 0,0 M 0.807,1.049 C 0.807,1.04 0.805,1.024 0.783,1.016 0.377,0.848 0.14,0.554 0.045,0.218 c 0.091,0.054 0.22,0.098 0.403,0.098 0.318,0 0.572,-0.235 0.572,-0.604 0,-0.38 -0.284,-0.622 -0.647,-0.622 -0.426,0 -0.638,0.278 -0.638,0.755 0,0.864 0.772,1.362 0.974,1.362 0.062,0 0.098,-0.123 0.098,-0.158"
           style="fill:#ffffff;fill-opacity:1;fill-rule:nonzero;stroke:none"
           id="path3235"
           inkscape:connector-curvature="0" />
      </g>
      <g
         id="g3237"
         transform="translate(502.2642,222.116)">
        <path
           d="m 0,0 c -0.08,-0.047 -0.147,-0.084 -0.205,-0.112 -0.058,-0.032 -0.106,-0.054 -0.147,-0.069 l 0.269,-0.434 -0.188,-0.108 -0.63,1.107 0.142,0.081 c 0.05,-0.08 0.099,-0.134 0.149,-0.16 0.051,-0.025 0.104,-0.035 0.16,-0.024 0.056,0.01 0.118,0.033 0.181,0.068 0.066,0.037 0.137,0.077 0.212,0.12 l 1.878,1.07 c 0.058,0.033 0.115,0.065 0.17,0.094 0.054,0.028 0.104,0.049 0.152,0.069 L 1.945,2.006 2.136,2.115 3.282,0.103 2.536,-0.355 2.453,-0.21 C 2.582,-0.137 2.676,-0.062 2.738,0.016 2.8,0.094 2.838,0.171 2.851,0.251 2.864,0.33 2.858,0.412 2.832,0.492 2.806,0.573 2.768,0.655 2.719,0.736 L 2.531,1.048 C 2.482,1.126 2.433,1.178 2.381,1.205 2.33,1.23 2.275,1.238 2.219,1.228 2.163,1.218 2.101,1.194 2.037,1.159 1.972,1.123 1.902,1.082 1.827,1.042 L 1.078,0.613 1.507,-0.14 1.865,0.104 1.974,-0.087 1.062,-0.606 0.98,-0.467 c 0.086,0.049 0.148,0.096 0.19,0.139 0.042,0.043 0.067,0.088 0.077,0.136 0.01,0.047 0.005,0.096 -0.014,0.151 C 1.213,0.013 1.183,0.074 1.143,0.144 1.133,0.163 1.12,0.183 1.109,0.204 1.097,0.226 1.031,0.329 0.91,0.517 L 0,0 Z"
           style="fill:#ffffff;fill-opacity:1;fill-rule:nonzero;stroke:none"
           id="path3239"
           inkscape:connector-curvature="0" />
      </g>
      <g
         id="g3241"
         transform="translate(504.8782,220.2039)">
        <path
           d="m 0,0 c -0.102,-0.072 -0.197,-0.158 -0.291,-0.255 -0.094,-0.096 -0.179,-0.201 -0.253,-0.312 -0.076,-0.114 -0.139,-0.231 -0.19,-0.356 -0.051,-0.125 -0.082,-0.251 -0.095,-0.379 -0.011,-0.128 -0.002,-0.256 0.028,-0.384 0.031,-0.128 0.092,-0.253 0.178,-0.372 0.082,-0.111 0.171,-0.2 0.272,-0.268 0.1,-0.066 0.207,-0.116 0.318,-0.146 0.114,-0.033 0.228,-0.045 0.348,-0.043 0.12,0.004 0.239,0.018 0.358,0.049 0.117,0.029 0.235,0.072 0.353,0.128 0.117,0.059 0.222,0.119 0.313,0.186 0.097,0.071 0.197,0.159 0.3,0.266 0.103,0.108 0.192,0.219 0.265,0.335 0.074,0.117 0.134,0.237 0.18,0.362 C 2.131,-1.065 2.16,-0.94 2.17,-0.814 2.18,-0.687 2.169,-0.563 2.137,-0.44 2.106,-0.318 2.051,-0.2 1.969,-0.088 1.849,0.078 1.705,0.196 1.541,0.267 1.377,0.337 1.205,0.371 1.026,0.367 0.848,0.363 0.67,0.328 0.491,0.262 0.313,0.196 0.149,0.108 0,0 M -0.363,0.342 C -0.25,0.424 -0.125,0.494 0.009,0.556 0.144,0.616 0.286,0.661 0.433,0.687 0.58,0.718 0.729,0.726 0.882,0.721 1.034,0.713 1.184,0.684 1.332,0.632 1.478,0.581 1.622,0.505 1.759,0.404 1.896,0.303 2.023,0.172 2.138,0.014 2.258,-0.15 2.346,-0.314 2.402,-0.48 2.458,-0.645 2.488,-0.808 2.495,-0.967 2.501,-1.125 2.484,-1.276 2.446,-1.427 2.405,-1.575 2.35,-1.716 2.278,-1.846 2.206,-1.978 2.12,-2.1 2.023,-2.212 1.924,-2.322 1.819,-2.419 1.707,-2.499 1.596,-2.581 1.472,-2.65 1.338,-2.709 1.203,-2.769 1.062,-2.814 0.915,-2.842 0.768,-2.871 0.62,-2.883 0.467,-2.876 0.313,-2.869 0.162,-2.84 0.014,-2.789 c -0.147,0.054 -0.291,0.129 -0.429,0.23 -0.136,0.1 -0.263,0.229 -0.378,0.388 -0.125,0.17 -0.218,0.339 -0.277,0.505 -0.059,0.168 -0.092,0.33 -0.099,0.488 -0.008,0.156 0.008,0.309 0.048,0.455 0.04,0.146 0.095,0.284 0.168,0.413 0.073,0.127 0.161,0.248 0.263,0.359 0.101,0.109 0.21,0.208 0.327,0.293"
           style="fill:#ffffff;fill-opacity:1;fill-rule:nonzero;stroke:none"
           id="path3243"
           inkscape:connector-curvature="0" />
      </g>
      <g
         id="g3245"
         transform="translate(506.17,215.478)">
        <path
           d="M 0,0 -0.174,0.19 0.589,0.931 0.719,0.789 C 0.617,0.683 0.543,0.571 0.496,0.455 0.451,0.342 0.43,0.228 0.434,0.11 c 0.004,-0.112 0.03,-0.226 0.08,-0.337 0.049,-0.11 0.119,-0.214 0.208,-0.311 0.066,-0.072 0.139,-0.132 0.217,-0.177 0.078,-0.045 0.159,-0.076 0.242,-0.088 0.084,-0.013 0.167,-0.007 0.251,0.018 0.083,0.025 0.162,0.07 0.236,0.14 0.091,0.081 0.149,0.17 0.177,0.271 0.029,0.099 0.038,0.203 0.028,0.315 C 1.863,0.052 1.84,0.165 1.803,0.288 1.767,0.407 1.729,0.527 1.69,0.651 1.652,0.773 1.617,0.897 1.585,1.022 1.553,1.146 1.537,1.269 1.537,1.389 1.536,1.508 1.558,1.625 1.6,1.736 1.643,1.848 1.719,1.954 1.828,2.054 1.869,2.093 1.919,2.128 1.976,2.163 2.033,2.198 2.095,2.225 2.163,2.248 2.232,2.268 2.305,2.283 2.384,2.287 2.462,2.293 2.543,2.283 2.628,2.258 2.712,2.235 2.799,2.195 2.889,2.138 2.979,2.081 3.069,2.003 3.161,1.902 3.205,1.856 3.247,1.802 3.291,1.743 3.335,1.682 3.375,1.62 3.412,1.55 3.448,1.481 3.48,1.409 3.505,1.33 3.531,1.253 3.549,1.172 3.558,1.088 L 3.703,1.247 3.874,1.06 3.068,0.32 2.946,0.454 C 3.029,0.54 3.1,0.637 3.157,0.741 3.215,0.846 3.251,0.954 3.266,1.068 3.28,1.18 3.271,1.294 3.237,1.409 3.205,1.523 3.138,1.636 3.039,1.743 2.969,1.82 2.896,1.877 2.819,1.914 2.741,1.951 2.664,1.971 2.589,1.974 2.513,1.978 2.44,1.966 2.368,1.937 2.297,1.91 2.234,1.869 2.176,1.817 2.091,1.741 2.038,1.654 2.013,1.556 1.988,1.46 1.981,1.355 1.994,1.247 2.006,1.137 2.031,1.022 2.068,0.901 2.105,0.781 2.144,0.659 2.184,0.536 2.225,0.41 2.259,0.286 2.29,0.16 2.321,0.033 2.337,-0.091 2.337,-0.212 2.336,-0.332 2.315,-0.451 2.271,-0.564 2.228,-0.679 2.152,-0.785 2.043,-0.885 1.942,-0.979 1.83,-1.046 1.708,-1.084 1.588,-1.125 1.464,-1.137 1.335,-1.121 1.206,-1.104 1.076,-1.059 0.942,-0.983 0.809,-0.907 0.681,-0.803 0.554,-0.665 0.504,-0.61 0.456,-0.55 0.411,-0.485 0.365,-0.42 0.323,-0.352 0.287,-0.28 0.25,-0.21 0.22,-0.136 0.195,-0.062 0.17,0.016 0.152,0.09 0.142,0.163 L 0,0 Z"
           style="fill:#ffffff;fill-opacity:1;fill-rule:nonzero;stroke:none"
           id="path3247"
           inkscape:connector-curvature="0" />
      </g>
      <g
         id="g3249"
         transform="translate(512.0132,213.2278)">
        <path
           d="M 0,0 C 0.096,0.112 0.173,0.218 0.231,0.31 0.291,0.407 0.325,0.497 0.336,0.583 0.348,0.671 0.334,0.756 0.297,0.837 0.259,0.917 0.192,1.002 0.096,1.086 l -0.317,0.28 -1.814,-2.027 c -0.12,-0.133 -0.211,-0.229 -0.273,-0.285 l 0.321,-0.261 -0.144,-0.162 -0.876,0.779 0.109,0.122 c 0.071,-0.058 0.135,-0.091 0.193,-0.099 0.057,-0.007 0.109,0.004 0.161,0.032 0.051,0.027 0.099,0.067 0.149,0.123 0.049,0.055 0.101,0.113 0.157,0.177 l 1.69,1.886 -0.387,0.341 C -1.015,2.061 -1.092,2.108 -1.17,2.131 -1.247,2.153 -1.326,2.152 -1.408,2.13 -1.489,2.106 -1.574,2.06 -1.662,1.994 -1.747,1.927 -1.842,1.839 -1.938,1.727 L -2.077,1.85 -1.353,2.62 0.821,0.684 0.14,-0.124 0,0 Z"
           style="fill:#ffffff;fill-opacity:1;fill-rule:nonzero;stroke:none"
           id="path3251"
           inkscape:connector-curvature="0" />
      </g>
      <g
         id="g3253"
         transform="translate(512.3927,210.5927)">
        <path
           d="m 0,0 c -0.054,-0.074 -0.1,-0.136 -0.139,-0.187 -0.038,-0.05 -0.072,-0.09 -0.102,-0.12 l 0.784,-0.546 c 0.091,-0.06 0.178,-0.107 0.264,-0.138 0.086,-0.03 0.172,-0.039 0.257,-0.029 0.085,0.011 0.171,0.048 0.256,0.109 0.085,0.058 0.17,0.149 0.257,0.269 l 0.138,-0.098 -0.591,-0.773 -2.093,1.5 0.096,0.134 c 0.066,-0.044 0.125,-0.07 0.176,-0.077 0.051,-0.009 0.098,-0.003 0.14,0.018 0.043,0.019 0.081,0.05 0.12,0.091 0.037,0.043 0.076,0.092 0.116,0.147 l 0.084,0.119 1.259,1.755 C 1.062,2.228 1.1,2.281 1.138,2.328 1.176,2.377 1.212,2.421 1.246,2.456 L 0.94,2.648 1.068,2.828 3.02,1.429 2.529,0.703 2.397,0.799 C 2.48,0.913 2.535,1.019 2.56,1.113 2.587,1.205 2.591,1.291 2.574,1.366 2.558,1.442 2.524,1.51 2.47,1.571 2.419,1.633 2.355,1.688 2.281,1.741 L 1.902,2.005 C 1.825,2.054 1.758,2.083 1.701,2.094 1.646,2.104 1.595,2.097 1.546,2.071 1.498,2.049 1.453,2.008 1.406,1.951 1.36,1.892 1.307,1.823 1.248,1.739 L 0.779,1.086 1.539,0.54 1.761,0.911 1.942,0.783 1.328,-0.071 1.197,0.024 C 1.253,0.103 1.29,0.171 1.311,0.229 1.33,0.286 1.335,0.336 1.324,0.384 1.312,0.431 1.287,0.477 1.247,0.516 1.207,0.556 1.155,0.6 1.089,0.645 1.073,0.66 1.053,0.673 1.033,0.687 1.014,0.699 0.891,0.783 0.667,0.929 L 0,0 Z"
           style="fill:#ffffff;fill-opacity:1;fill-rule:nonzero;stroke:none"
           id="path3255"
           inkscape:connector-curvature="0" />
      </g>
      <g
         id="g3257"
         transform="translate(516.1358,209.5307)">
        <path
           d="m 0,0 c 0.044,-0.028 0.086,-0.056 0.126,-0.081 0.04,-0.026 0.087,-0.052 0.14,-0.078 0.121,-0.064 0.237,-0.111 0.351,-0.139 0.113,-0.03 0.221,-0.037 0.323,-0.023 0.103,0.015 0.199,0.052 0.288,0.118 0.088,0.064 0.168,0.16 0.241,0.286 C 1.592,0.3 1.623,0.498 1.561,0.682 1.498,0.862 1.335,1.031 1.068,1.181 0.986,1.229 0.917,1.253 0.863,1.251 0.808,1.249 0.759,1.231 0.715,1.196 0.674,1.159 0.634,1.11 0.596,1.047 0.559,0.984 0.519,0.913 0.476,0.835 L 0,0 Z m 0.198,-0.337 c -0.05,0.024 -0.099,0.051 -0.148,0.08 -0.049,0.029 -0.097,0.06 -0.144,0.093 L -0.575,-1.01 C -0.62,-1.089 -0.66,-1.156 -0.693,-1.212 -0.728,-1.267 -0.759,-1.31 -0.786,-1.346 l 0.324,-0.16 -0.107,-0.189 -0.977,0.556 0.08,0.141 c 0.085,-0.043 0.155,-0.063 0.21,-0.06 0.056,0.003 0.106,0.025 0.15,0.062 0.044,0.035 0.084,0.087 0.121,0.15 0.037,0.065 0.078,0.134 0.121,0.211 L 0.204,1.243 C 0.238,1.301 0.271,1.356 0.303,1.409 0.336,1.461 0.366,1.506 0.397,1.548 L 0.074,1.705 0.183,1.899 C 0.348,1.808 0.514,1.717 0.681,1.624 0.847,1.532 1.013,1.435 1.179,1.338 1.386,1.216 1.553,1.093 1.68,0.972 1.81,0.851 1.903,0.729 1.961,0.61 2.019,0.489 2.043,0.368 2.033,0.249 2.024,0.129 1.985,0.009 1.917,-0.111 1.867,-0.195 1.808,-0.276 1.734,-0.351 1.663,-0.427 1.573,-0.487 1.468,-0.531 1.362,-0.576 1.238,-0.6 1.097,-0.601 0.957,-0.605 0.794,-0.575 0.61,-0.514 0.643,-0.588 0.664,-0.67 0.673,-0.759 0.683,-0.849 0.69,-0.951 0.694,-1.066 L 0.726,-1.699 C 0.731,-1.779 0.735,-1.853 0.74,-1.922 0.746,-1.991 0.758,-2.056 0.778,-2.117 0.797,-2.176 0.826,-2.23 0.865,-2.279 0.901,-2.33 0.954,-2.374 1.022,-2.413 L 0.941,-2.554 0.394,-2.244 C 0.373,-2.183 0.356,-2.125 0.343,-2.068 0.33,-2.013 0.319,-1.956 0.311,-1.899 0.303,-1.844 0.297,-1.785 0.293,-1.727 0.289,-1.67 0.285,-1.608 0.281,-1.542 L 0.255,-0.913 C 0.253,-0.871 0.251,-0.825 0.25,-0.776 0.249,-0.729 0.248,-0.68 0.245,-0.631 0.241,-0.579 0.236,-0.529 0.229,-0.479 0.222,-0.43 0.211,-0.382 0.198,-0.337"
           style="fill:#ffffff;fill-opacity:1;fill-rule:nonzero;stroke:none"
           id="path3259"
           inkscape:connector-curvature="0" />
      </g>
      <g
         id="g3261"
         transform="translate(519.4946,209.0964)">
        <path
           d="M 0,0 C 0.029,0.062 0.057,0.12 0.084,0.174 0.112,0.229 0.139,0.278 0.166,0.32 l -0.335,0.133 0.091,0.198 1.02,-0.47 -0.068,-0.15 C 0.787,0.068 0.715,0.083 0.66,0.074 0.603,0.064 0.555,0.039 0.515,-0.002 0.475,-0.041 0.439,-0.097 0.407,-0.161 0.375,-0.228 0.341,-0.301 0.303,-0.383 L -0.588,-2.31 c -0.039,-0.082 -0.072,-0.154 -0.101,-0.211 -0.029,-0.06 -0.056,-0.107 -0.08,-0.141 l 0.335,-0.134 -0.09,-0.197 -1.021,0.472 0.07,0.148 c 0.086,-0.037 0.157,-0.051 0.213,-0.043 0.056,0.008 0.104,0.033 0.144,0.074 0.04,0.04 0.076,0.094 0.108,0.161 0.032,0.067 0.067,0.139 0.103,0.219 L 0,0 Z"
           style="fill:#ffffff;fill-opacity:1;fill-rule:nonzero;stroke:none"
           id="path3263"
           inkscape:connector-curvature="0" />
      </g>
      <g
         id="g3265"
         transform="translate(522.9064,204.5163)">
        <path
           d="M 0,0 -0.228,0.08 -1.305,3.547 -1.312,3.549 -2.007,1.524 C -2.036,1.444 -2.063,1.365 -2.091,1.288 -2.119,1.211 -2.149,1.136 -2.18,1.061 L -1.833,0.96 -1.905,0.756 -2.768,1.059 -2.714,1.213 c 0.073,-0.025 0.134,-0.033 0.185,-0.022 0.05,0.01 0.091,0.031 0.125,0.061 0.034,0.028 0.061,0.063 0.082,0.106 0.02,0.041 0.037,0.08 0.05,0.115 L -1.358,4.059 -1.68,4.15 -1.608,4.357 -1.046,4.161 0.014,0.769 0.02,0.767 0.783,2.923 C 0.829,3.055 0.874,3.168 0.916,3.26 L 0.571,3.358 0.644,3.565 1.511,3.26 1.457,3.105 C 1.367,3.134 1.294,3.14 1.241,3.126 1.186,3.111 1.141,3.082 1.105,3.036 1.071,2.993 1.04,2.936 1.017,2.866 0.994,2.799 0.967,2.72 0.937,2.637 L 0,0 Z"
           style="fill:#ffffff;fill-opacity:1;fill-rule:nonzero;stroke:none"
           id="path3267"
           inkscape:connector-curvature="0" />
      </g>
      <g
         id="g3269"
         transform="translate(527.5084,203.6661)">
        <path
           d="m 0,0 -0.133,0.029 c -0.054,0.013 -0.128,0.018 -0.22,0.018 -0.094,0 -0.205,-0.009 -0.334,-0.029 C -0.742,0.009 -0.802,0.004 -0.866,0 -0.929,-0.003 -0.994,-0.003 -1.059,0 -1.123,0.003 -1.188,0.009 -1.251,0.014 -1.314,0.021 -1.373,0.031 -1.428,0.042 -1.672,0.097 -1.887,0.182 -2.073,0.306 -2.26,0.429 -2.41,0.579 -2.525,0.757 -2.64,0.935 -2.714,1.14 -2.75,1.369 c -0.034,0.23 -0.024,0.478 0.035,0.744 0.033,0.153 0.081,0.302 0.145,0.447 0.063,0.145 0.141,0.28 0.234,0.404 0.092,0.123 0.198,0.236 0.317,0.332 0.12,0.098 0.252,0.177 0.397,0.237 0.145,0.061 0.302,0.097 0.471,0.113 0.168,0.016 0.347,0.002 0.536,-0.038 C -0.527,3.588 -0.44,3.563 -0.352,3.531 -0.265,3.499 -0.179,3.461 -0.096,3.42 -0.015,3.379 0.064,3.332 0.138,3.28 0.212,3.23 0.278,3.176 0.337,3.12 L 0.367,3.359 0.636,3.3 0.395,2.183 0.218,2.22 C 0.24,2.376 0.235,2.519 0.204,2.651 0.172,2.784 0.119,2.899 0.044,3.002 -0.032,3.102 -0.126,3.188 -0.24,3.257 -0.353,3.326 -0.482,3.377 -0.623,3.408 -0.796,3.444 -0.967,3.442 -1.136,3.398 -1.305,3.353 -1.462,3.275 -1.604,3.161 -1.746,3.047 -1.87,2.904 -1.979,2.728 -2.085,2.552 -2.163,2.35 -2.213,2.123 -2.26,1.892 -2.276,1.674 -2.255,1.466 -2.234,1.256 -2.18,1.07 -2.095,0.903 -2.011,0.737 -1.896,0.599 -1.753,0.484 -1.611,0.37 -1.442,0.294 -1.251,0.25 c 0.066,-0.014 0.135,-0.022 0.209,-0.029 0.073,-0.005 0.149,-0.008 0.225,-0.003 0.076,0.003 0.153,0.012 0.23,0.028 0.078,0.016 0.153,0.038 0.226,0.066 L -0.13,1.382 -0.478,1.436 -0.432,1.651 0.672,1.413 0.638,1.253 C 0.577,1.265 0.523,1.265 0.478,1.251 0.432,1.237 0.392,1.215 0.358,1.183 0.325,1.154 0.297,1.119 0.274,1.077 0.251,1.037 0.232,0.996 0.218,0.953 0.203,0.912 0.19,0.873 0.182,0.836 0.172,0.798 0.166,0.768 0.162,0.747 L 0,0 Z"
           style="fill:#ffffff;fill-opacity:1;fill-rule:nonzero;stroke:none"
           id="path3271"
           inkscape:connector-curvature="0" />
      </g>
      <g
         id="g3273"
         transform="translate(532.7478,206.3526)">
        <path
           d="m 0,0 c -0.178,0.007 -0.344,-0.023 -0.502,-0.093 -0.159,-0.068 -0.299,-0.172 -0.418,-0.305 -0.123,-0.133 -0.22,-0.298 -0.294,-0.494 -0.074,-0.195 -0.117,-0.415 -0.127,-0.658 -0.006,-0.158 0.004,-0.308 0.029,-0.447 0.027,-0.14 0.066,-0.27 0.119,-0.39 0.054,-0.121 0.119,-0.229 0.198,-0.326 0.078,-0.097 0.164,-0.178 0.261,-0.247 0.095,-0.07 0.2,-0.124 0.313,-0.163 0.111,-0.041 0.229,-0.062 0.352,-0.068 0.11,-0.004 0.218,0.004 0.328,0.023 0.108,0.022 0.214,0.053 0.316,0.098 0.102,0.044 0.197,0.101 0.289,0.169 0.089,0.067 0.172,0.147 0.243,0.237 l 0.125,-0.11 C 1.118,-2.917 0.999,-3.034 0.872,-3.123 0.746,-3.213 0.62,-3.282 0.493,-3.331 0.367,-3.38 0.244,-3.415 0.124,-3.428 0.004,-3.443 -0.107,-3.449 -0.21,-3.445 c -0.251,0.01 -0.477,0.066 -0.681,0.165 -0.205,0.099 -0.378,0.233 -0.522,0.399 -0.142,0.165 -0.251,0.356 -0.324,0.575 -0.075,0.218 -0.108,0.452 -0.098,0.699 0.007,0.157 0.029,0.311 0.067,0.465 0.038,0.151 0.092,0.296 0.162,0.433 0.07,0.136 0.155,0.262 0.256,0.378 0.1,0.115 0.217,0.215 0.348,0.297 0.132,0.083 0.28,0.144 0.442,0.187 0.163,0.044 0.34,0.062 0.534,0.053 C 0.162,0.198 0.337,0.167 0.499,0.11 0.663,0.053 0.818,-0.03 0.968,-0.138 L 0.953,0.13 1.224,0.119 1.178,-1.038 0.997,-1.03 C 0.986,-0.874 0.953,-0.732 0.903,-0.608 0.852,-0.484 0.785,-0.376 0.699,-0.288 0.615,-0.2 0.512,-0.131 0.394,-0.084 0.276,-0.033 0.144,-0.004 0,0"
           style="fill:#ffffff;fill-opacity:1;fill-rule:nonzero;stroke:none"
           id="path3275"
           inkscape:connector-curvature="0" />
      </g>
      <g
         id="g3277"
         transform="translate(535.4391,204.8156)">
        <path
           d="m 0,0 c 0.01,-0.122 0.031,-0.249 0.065,-0.381 0.034,-0.13 0.078,-0.257 0.134,-0.379 0.057,-0.123 0.124,-0.238 0.204,-0.345 0.08,-0.111 0.171,-0.204 0.276,-0.281 0.101,-0.078 0.215,-0.136 0.34,-0.176 0.124,-0.041 0.262,-0.055 0.411,-0.044 0.135,0.01 0.259,0.042 0.369,0.093 0.11,0.049 0.208,0.114 0.293,0.194 0.084,0.079 0.158,0.171 0.217,0.273 0.061,0.104 0.11,0.215 0.144,0.331 0.037,0.116 0.061,0.238 0.076,0.369 0.014,0.13 0.016,0.25 0.006,0.363 C 2.525,0.136 2.501,0.27 2.464,0.414 2.427,0.556 2.378,0.689 2.317,0.812 2.258,0.935 2.185,1.052 2.103,1.156 2.022,1.262 1.929,1.35 1.828,1.426 1.726,1.499 1.615,1.554 1.493,1.594 1.371,1.631 1.241,1.644 1.103,1.633 0.9,1.617 0.725,1.556 0.578,1.454 0.432,1.35 0.312,1.222 0.223,1.068 0.131,0.913 0.069,0.743 0.032,0.558 -0.005,0.37 -0.015,0.185 0,0 m -0.48,-0.13 c -0.012,0.138 -0.008,0.281 0.01,0.428 0.02,0.147 0.056,0.291 0.11,0.431 0.05,0.141 0.12,0.274 0.206,0.4 0.087,0.126 0.19,0.239 0.31,0.338 C 0.278,1.566 0.417,1.648 0.574,1.711 0.732,1.774 0.91,1.814 1.106,1.832 1.307,1.847 1.495,1.837 1.665,1.798 1.836,1.76 1.99,1.7 2.127,1.623 2.266,1.544 2.387,1.45 2.493,1.339 2.599,1.228 2.69,1.106 2.765,0.977 2.84,0.848 2.898,0.711 2.941,0.57 2.985,0.428 3.012,0.289 3.023,0.151 3.035,0.014 3.029,-0.129 3.01,-0.276 2.99,-0.421 2.953,-0.565 2.902,-0.704 2.852,-0.844 2.781,-0.977 2.696,-1.103 2.609,-1.232 2.505,-1.345 2.384,-1.445 2.263,-1.543 2.123,-1.625 1.966,-1.69 1.808,-1.755 1.632,-1.796 1.437,-1.811 1.225,-1.829 1.034,-1.817 0.861,-1.782 c -0.174,0.038 -0.33,0.096 -0.467,0.169 -0.138,0.077 -0.26,0.17 -0.364,0.28 -0.105,0.11 -0.192,0.23 -0.264,0.359 -0.072,0.13 -0.126,0.267 -0.167,0.412 -0.043,0.144 -0.069,0.286 -0.079,0.432"
           style="fill:#ffffff;fill-opacity:1;fill-rule:nonzero;stroke:none"
           id="path3279"
           inkscape:connector-curvature="0" />
      </g>
      <g
         id="g3281"
         transform="translate(539.1672,206.819)">
        <path
           d="M 0,0 0.744,0.165 C 0.915,-0.066 1.077,-0.288 1.231,-0.502 1.387,-0.715 1.537,-0.927 1.686,-1.134 1.837,-1.342 1.985,-1.549 2.132,-1.755 2.28,-1.96 2.433,-2.171 2.588,-2.384 l 0.009,10e-4 c 0.009,0.049 0.018,0.104 0.028,0.164 0.009,0.057 0.019,0.118 0.029,0.178 0.01,0.064 0.02,0.125 0.027,0.183 0.01,0.058 0.019,0.111 0.027,0.161 0.062,0.386 0.132,0.776 0.207,1.172 0.074,0.393 0.143,0.799 0.21,1.216 l 0.72,0.16 0.037,-0.163 C 3.821,0.679 3.769,0.657 3.728,0.63 3.688,0.601 3.657,0.562 3.637,0.515 3.62,0.469 3.611,0.41 3.615,0.338 3.618,0.267 3.633,0.183 3.661,0.084 l 0.62,-2.192 C 4.296,-2.165 4.313,-2.218 4.326,-2.269 4.338,-2.32 4.35,-2.369 4.359,-2.41 L 4.71,-2.316 4.757,-2.528 3.665,-2.769 3.63,-2.61 c 0.075,0.019 0.132,0.046 0.171,0.082 0.038,0.036 0.064,0.081 0.075,0.136 0.012,0.054 0.013,0.119 0.002,0.188 -0.01,0.072 -0.029,0.153 -0.052,0.244 L 3.237,0.093 C 3.234,0.068 3.23,0.04 3.224,0.011 3.218,-0.018 3.214,-0.049 3.209,-0.079 L 2.711,-3.03 2.566,-3.062 c -0.16,0.216 -0.318,0.427 -0.479,0.642 -0.161,0.214 -0.321,0.432 -0.48,0.649 -0.159,0.217 -0.317,0.438 -0.474,0.661 -0.156,0.22 -0.311,0.448 -0.46,0.678 l 0.042,-0.215 c 0.013,-0.078 0.031,-0.167 0.051,-0.269 0.02,-0.1 0.041,-0.209 0.062,-0.326 C 0.85,-1.356 0.872,-1.476 0.895,-1.601 0.921,-1.725 0.944,-1.85 0.97,-1.977 0.995,-2.102 1.018,-2.228 1.042,-2.349 1.066,-2.471 1.089,-2.589 1.111,-2.697 1.126,-2.771 1.14,-2.844 1.156,-2.916 1.169,-2.987 1.18,-3.054 1.185,-3.115 l 0.362,0.099 0.047,-0.212 -0.931,-0.206 -0.035,0.16 c 0.075,0.018 0.132,0.044 0.169,0.077 0.038,0.036 0.064,0.075 0.078,0.121 0.013,0.046 0.018,0.095 0.013,0.151 -0.005,0.054 -0.013,0.111 -0.023,0.173 L 0.394,-0.12 0.047,-0.21 0,0 Z"
           style="fill:#ffffff;fill-opacity:1;fill-rule:nonzero;stroke:none"
           id="path3283"
           inkscape:connector-curvature="0" />
      </g>
      <g
         id="g3285"
         transform="translate(543.9398,207.947)">
        <path
           d="M 0,0 0.712,0.274 C 0.913,0.071 1.107,-0.125 1.29,-0.313 1.475,-0.501 1.657,-0.686 1.835,-0.872 2.013,-1.055 2.191,-1.237 2.368,-1.42 2.546,-1.6 2.726,-1.785 2.911,-1.973 l 0.01,0.003 c 0.002,0.049 0.003,0.104 0.003,0.164 0,0.058 10e-4,0.12 0.002,0.182 0,0.063 0,0.125 0.002,0.183 l 0,0.164 c 0.004,0.391 0.016,0.787 0.032,1.188 0.015,0.402 0.025,0.814 0.029,1.236 L 3.677,1.412 3.737,1.258 C 3.677,1.235 3.628,1.208 3.593,1.175 3.558,1.14 3.535,1.098 3.522,1.051 3.509,0.999 3.511,0.939 3.524,0.87 3.539,0.8 3.566,0.719 3.61,0.625 L 4.546,-1.451 C 4.57,-1.505 4.592,-1.555 4.613,-1.605 4.632,-1.653 4.652,-1.697 4.667,-1.738 L 5,-1.594 5.078,-1.795 4.034,-2.196 3.976,-2.044 c 0.071,0.03 0.124,0.065 0.157,0.107 0.032,0.042 0.051,0.09 0.055,0.145 0.005,0.055 -0.006,0.118 -0.027,0.187 -0.021,0.07 -0.051,0.146 -0.089,0.234 L 3.189,0.572 C 3.188,0.545 3.187,0.518 3.187,0.489 3.185,0.46 3.185,0.43 3.185,0.397 L 3.129,-2.595 2.991,-2.649 c -0.189,0.189 -0.379,0.378 -0.569,0.565 -0.192,0.189 -0.381,0.378 -0.571,0.57 -0.19,0.193 -0.379,0.386 -0.567,0.583 -0.186,0.197 -0.373,0.4 -0.558,0.606 l 0.077,-0.208 c 0.025,-0.074 0.054,-0.161 0.088,-0.259 0.036,-0.097 0.073,-0.2 0.11,-0.312 0.039,-0.112 0.08,-0.226 0.122,-0.347 0.043,-0.118 0.086,-0.236 0.129,-0.359 0.042,-0.121 0.085,-0.242 0.126,-0.358 0.041,-0.118 0.082,-0.229 0.12,-0.335 0.025,-0.071 0.051,-0.14 0.075,-0.209 0.025,-0.069 0.046,-0.132 0.059,-0.194 l 0.344,0.153 0.078,-0.203 -0.89,-0.34 -0.059,0.152 c 0.073,0.029 0.123,0.063 0.157,0.102 0.031,0.039 0.05,0.083 0.057,0.13 0.008,0.047 0.005,0.097 -0.009,0.151 -0.013,0.053 -0.03,0.11 -0.048,0.168 L 0.407,-0.06 0.076,-0.2 0,0 Z"
           style="fill:#ffffff;fill-opacity:1;fill-rule:nonzero;stroke:none"
           id="path3287"
           inkscape:connector-curvature="0" />
      </g>
      <g
         id="g3289"
         transform="translate(549.6324,208.5271)">
        <path
           d="m 0,0 c 0.06,-0.106 0.131,-0.214 0.215,-0.318 0.084,-0.106 0.178,-0.202 0.279,-0.291 0.103,-0.088 0.212,-0.166 0.329,-0.233 0.118,-0.065 0.239,-0.112 0.363,-0.141 0.128,-0.029 0.255,-0.033 0.387,-0.02 0.13,0.014 0.261,0.059 0.391,0.13 0.119,0.065 0.219,0.146 0.298,0.235 0.08,0.092 0.143,0.192 0.188,0.299 C 2.494,-0.231 2.521,-0.118 2.534,0 2.547,0.118 2.545,0.239 2.53,0.36 2.515,0.482 2.486,0.604 2.445,0.727 2.405,0.851 2.356,0.963 2.301,1.061 2.244,1.166 2.168,1.276 2.074,1.393 1.98,1.508 1.88,1.609 1.775,1.696 1.669,1.784 1.557,1.859 1.44,1.921 1.322,1.984 1.201,2.027 1.078,2.053 0.953,2.077 0.829,2.083 0.703,2.067 0.577,2.053 0.454,2.011 0.332,1.943 0.154,1.845 0.019,1.718 -0.073,1.563 -0.164,1.409 -0.219,1.242 -0.238,1.066 -0.257,0.888 -0.244,0.706 -0.199,0.52 -0.156,0.336 -0.091,0.162 0,0 m -0.386,-0.316 c -0.066,0.124 -0.121,0.254 -0.165,0.396 -0.042,0.142 -0.07,0.287 -0.08,0.437 -0.01,0.148 -0.001,0.299 0.025,0.449 0.027,0.149 0.075,0.296 0.144,0.435 0.068,0.141 0.163,0.272 0.28,0.397 0.117,0.121 0.263,0.231 0.434,0.327 C 0.431,2.222 0.604,2.289 0.774,2.324 0.947,2.359 1.11,2.371 1.268,2.356 1.428,2.342 1.577,2.306 1.719,2.249 1.862,2.191 1.995,2.118 2.115,2.031 2.238,1.943 2.347,1.845 2.445,1.732 2.543,1.621 2.626,1.504 2.691,1.384 2.758,1.264 2.813,1.131 2.853,0.991 2.896,0.85 2.923,0.704 2.933,0.556 2.944,0.406 2.937,0.257 2.91,0.105 2.885,-0.047 2.837,-0.191 2.766,-0.332 2.698,-0.475 2.604,-0.604 2.486,-0.728 2.371,-0.853 2.227,-0.962 2.054,-1.057 1.87,-1.159 1.689,-1.23 1.517,-1.267 1.345,-1.305 1.18,-1.318 1.022,-1.305 c -0.157,0.012 -0.306,0.046 -0.446,0.104 -0.14,0.057 -0.269,0.129 -0.389,0.218 -0.118,0.09 -0.225,0.19 -0.322,0.304 -0.097,0.116 -0.18,0.236 -0.251,0.363"
           style="fill:#ffffff;fill-opacity:1;fill-rule:nonzero;stroke:none"
           id="path3291"
           inkscape:connector-curvature="0" />
      </g>
      <g
         id="g3293"
         transform="translate(556.6562,210.7423)">
        <path
           d="m 0,0 -0.194,-0.143 -3.467,1.075 -0.006,-0.005 1.275,-1.718 c 0.05,-0.07 0.101,-0.137 0.147,-0.204 0.049,-0.067 0.094,-0.134 0.138,-0.2 l 0.278,0.227 0.129,-0.174 -0.739,-0.54 -0.095,0.131 c 0.061,0.045 0.101,0.091 0.12,0.14 0.02,0.047 0.028,0.093 0.022,0.138 -0.006,0.044 -0.02,0.086 -0.041,0.127 -0.023,0.041 -0.044,0.075 -0.068,0.106 l -1.613,2.219 -0.257,-0.215 -0.128,0.177 0.481,0.35 3.392,-1.044 0.004,0.003 -1.343,1.85 c -0.083,0.114 -0.149,0.213 -0.202,0.3 l -0.276,-0.229 -0.129,0.177 0.741,0.541 0.098,-0.13 C -1.807,2.9 -1.854,2.844 -1.873,2.791 -1.89,2.738 -1.892,2.685 -1.876,2.631 -1.86,2.576 -1.829,2.518 -1.786,2.461 -1.742,2.403 -1.693,2.338 -1.64,2.263 L 0,0 Z"
           style="fill:#ffffff;fill-opacity:1;fill-rule:nonzero;stroke:none"
           id="path3295"
           inkscape:connector-curvature="0" />
      </g>
      <g
         id="g3297"
         transform="translate(558.0028,212.7807)">
        <path
           d="m 0,0 c 0.061,-0.068 0.112,-0.126 0.154,-0.177 0.042,-0.049 0.075,-0.092 0.1,-0.127 l 0.362,0.357 0.147,-0.158 -0.941,-0.859 -0.11,0.12 c 0.068,0.067 0.108,0.127 0.123,0.181 0.014,0.055 0.01,0.109 -0.012,0.162 -0.021,0.052 -0.058,0.107 -0.107,0.162 -0.048,0.054 -0.103,0.114 -0.162,0.18 l -1.456,1.596 c -0.047,0.05 -0.09,0.1 -0.129,0.147 -0.038,0.047 -0.071,0.09 -0.102,0.132 l -0.251,-0.259 -0.15,0.162 1.712,1.56 0.61,-0.629 -0.122,-0.111 C -0.435,2.548 -0.528,2.625 -0.617,2.668 -0.705,2.711 -0.791,2.73 -0.872,2.726 -0.952,2.722 -1.029,2.697 -1.102,2.654 -1.176,2.611 -1.248,2.555 -1.315,2.491 L -1.577,2.239 C -1.643,2.175 -1.682,2.114 -1.697,2.058 -1.712,2.003 -1.708,1.948 -1.685,1.894 -1.664,1.843 -1.628,1.788 -1.579,1.732 -1.529,1.677 -1.474,1.617 -1.417,1.553 L -0.836,0.915 -0.194,1.501 -0.513,1.796 -0.348,1.943 0.359,1.168 0.239,1.057 C 0.173,1.13 0.114,1.181 0.062,1.213 0.012,1.244 -0.039,1.26 -0.088,1.258 -0.135,1.257 -0.185,1.241 -0.231,1.211 -0.28,1.18 -0.332,1.138 -0.391,1.082 -0.408,1.068 -0.427,1.052 -0.444,1.036 -0.462,1.02 -0.55,0.932 -0.705,0.773 L 0,0 Z"
           style="fill:#ffffff;fill-opacity:1;fill-rule:nonzero;stroke:none"
           id="path3299"
           inkscape:connector-curvature="0" />
      </g>
      <g
         id="g3301"
         transform="translate(559.2853,216.4418)">
        <path
           d="m 0,0 c 0.108,-0.2 0.205,-0.377 0.287,-0.528 0.081,-0.153 0.156,-0.29 0.22,-0.408 L 1.28,-0.078 0.333,0.297 -0.274,0.541 -0.281,0.534 0,0 Z M 0.897,-1.624 C 0.92,-1.659 0.938,-1.69 0.954,-1.72 0.972,-1.747 0.985,-1.773 0.999,-1.798 1.012,-1.822 1.024,-1.846 1.036,-1.87 1.048,-1.892 1.059,-1.92 1.073,-1.947 l 0.246,0.304 0.159,-0.145 -0.623,-0.693 -0.121,0.108 c 0.049,0.055 0.08,0.112 0.088,0.165 0.011,0.057 0.004,0.115 -0.015,0.175 -0.019,0.061 -0.047,0.128 -0.086,0.199 -0.038,0.072 -0.082,0.151 -0.128,0.238 l -1.396,2.64 0.08,0.089 2.86,-1.076 C 2.173,0.046 2.214,0.029 2.258,0.008 2.305,-0.012 2.35,-0.035 2.397,-0.059 2.445,-0.082 2.489,-0.107 2.53,-0.134 2.571,-0.161 2.604,-0.187 2.632,-0.213 L 2.844,0.053 3.006,-0.094 2.243,-0.942 2.12,-0.834 c 0.06,0.07 0.094,0.133 0.099,0.188 0.006,0.054 -0.005,0.1 -0.033,0.142 -0.029,0.039 -0.066,0.072 -0.114,0.101 -0.047,0.028 -0.094,0.051 -0.141,0.069 L 1.465,-0.15 0.617,-1.137 c 0.054,-0.095 0.102,-0.181 0.147,-0.258 0.044,-0.078 0.089,-0.154 0.133,-0.229"
           style="fill:#ffffff;fill-opacity:1;fill-rule:nonzero;stroke:none"
           id="path3303"
           inkscape:connector-curvature="0" />
      </g>
      <g
         id="g3305"
         transform="translate(561.9223,218.7717)">
        <path
           d="M 0,0 C 0.035,0.041 0.066,0.081 0.096,0.116 0.125,0.155 0.155,0.198 0.188,0.246 0.265,0.359 0.323,0.473 0.366,0.581 0.408,0.689 0.428,0.797 0.424,0.9 0.422,1.005 0.393,1.102 0.338,1.199 0.284,1.293 0.198,1.384 0.081,1.47 -0.12,1.616 -0.316,1.669 -0.503,1.629 -0.691,1.586 -0.877,1.441 -1.056,1.192 -1.111,1.115 -1.14,1.051 -1.145,0.996 -1.151,0.94 -1.139,0.89 -1.107,0.845 -1.076,0.799 -1.032,0.752 -0.974,0.709 -0.914,0.666 -0.85,0.618 -0.776,0.565 L 0,0 Z M 0.357,0.16 C 0.327,0.113 0.297,0.068 0.261,0.021 0.228,-0.023 0.191,-0.068 0.153,-0.11 l 0.789,-0.573 c 0.073,-0.052 0.136,-0.099 0.186,-0.141 0.053,-0.039 0.093,-0.073 0.124,-0.105 l 0.196,0.304 0.175,-0.127 -0.659,-0.91 -0.134,0.096 c 0.053,0.078 0.08,0.146 0.084,0.203 0.003,0.055 -0.013,0.107 -0.045,0.154 -0.031,0.049 -0.077,0.093 -0.137,0.136 -0.057,0.046 -0.124,0.094 -0.196,0.144 L -1.211,0.34 c -0.054,0.041 -0.106,0.08 -0.155,0.118 -0.047,0.037 -0.09,0.073 -0.126,0.108 l -0.194,-0.303 -0.18,0.129 c 0.107,0.154 0.218,0.309 0.327,0.463 0.11,0.156 0.225,0.311 0.341,0.465 0.144,0.191 0.285,0.346 0.419,0.459 0.134,0.114 0.264,0.193 0.39,0.238 0.126,0.042 0.249,0.054 0.368,0.032 C 0.098,2.026 0.212,1.974 0.323,1.893 0.402,1.837 0.475,1.766 0.542,1.686 0.608,1.606 0.659,1.51 0.691,1.4 0.724,1.29 0.733,1.165 0.721,1.026 0.707,0.884 0.661,0.726 0.58,0.55 0.657,0.575 0.739,0.587 0.83,0.585 0.918,0.585 1.022,0.581 1.137,0.573 L 1.77,0.536 C 1.85,0.53 1.924,0.526 1.993,0.524 2.063,0.522 2.129,0.526 2.19,0.54 2.253,0.552 2.309,0.575 2.362,0.606 2.418,0.64 2.465,0.687 2.512,0.749 L 2.644,0.655 2.273,0.145 C 2.212,0.131 2.151,0.12 2.093,0.113 2.037,0.106 1.98,0.103 1.923,0.101 1.865,0.1 1.808,0.1 1.75,0.101 1.691,0.103 1.631,0.105 1.564,0.109 L 0.936,0.153 C 0.893,0.155 0.85,0.158 0.801,0.163 0.753,0.168 0.703,0.173 0.654,0.174 0.603,0.176 0.552,0.177 0.502,0.175 0.453,0.174 0.404,0.168 0.357,0.16"
           style="fill:#ffffff;fill-opacity:1;fill-rule:nonzero;stroke:none"
           id="path3307"
           inkscape:connector-curvature="0" />
      </g>
      <g
         id="g3309"
         transform="translate(564.9907,221.2376)">
        <path
           d="m 0,0 c 0.081,-0.045 0.147,-0.086 0.2,-0.118 0.055,-0.033 0.097,-0.063 0.13,-0.09 L 0.795,0.628 C 0.848,0.722 0.886,0.814 0.907,0.902 0.929,0.991 0.931,1.077 0.91,1.161 0.89,1.246 0.846,1.325 0.779,1.405 0.709,1.484 0.612,1.56 0.484,1.634 l 0.085,0.147 0.828,-0.51 -1.289,-2.233 -0.142,0.081 c 0.038,0.072 0.059,0.133 0.061,0.185 0.002,0.051 -0.007,0.096 -0.031,0.137 -0.024,0.041 -0.058,0.077 -0.104,0.11 -0.047,0.033 -0.1,0.066 -0.159,0.101 l -0.127,0.073 -1.869,1.079 C -2.322,0.838 -2.379,0.872 -2.429,0.903 -2.48,0.936 -2.528,0.968 -2.568,0.999 l -0.161,-0.323 -0.19,0.109 1.2,2.079 0.77,-0.415 L -1.03,2.307 C -1.154,2.379 -1.264,2.424 -1.36,2.439 -1.455,2.456 -1.54,2.452 -1.613,2.429 -1.686,2.406 -1.751,2.365 -1.807,2.304 -1.862,2.247 -1.912,2.178 -1.959,2.1 L -2.182,1.697 C -2.225,1.615 -2.247,1.545 -2.253,1.487 -2.256,1.431 -2.245,1.381 -2.215,1.335 -2.185,1.29 -2.139,1.248 -2.077,1.208 -2.017,1.167 -1.941,1.121 -1.852,1.071 l 0.696,-0.402 0.468,0.81 -0.392,0.186 0.11,0.191 0.909,-0.525 -0.08,-0.142 C -0.226,1.238 -0.297,1.269 -0.355,1.282 -0.414,1.298 -0.468,1.296 -0.513,1.28 -0.558,1.265 -0.599,1.236 -0.636,1.191 -0.673,1.147 -0.711,1.092 -0.75,1.022 -0.762,1.003 -0.773,0.983 -0.785,0.961 -0.797,0.939 -0.865,0.81 -0.99,0.572 L 0,0 Z"
           style="fill:#ffffff;fill-opacity:1;fill-rule:nonzero;stroke:none"
           id="path3311"
           inkscape:connector-curvature="0" />
      </g>
      <g
         id="g3313"
         transform="translate(488.6884,245.8485)">
        <path
           d="m 0,0 0,-5.663 3.534,0 c 0.904,0 2.74,0.475 2.74,2.945 C 6.274,-0.477 4.553,0 3.217,0 L 0,0 Z m 8.335,-2.718 c 0,-4.145 -3.647,-4.666 -4.825,-4.666 l -3.51,0 0,-6.296 c 0,-0.317 -0.272,-0.498 -0.905,-0.498 l -0.181,0 c -0.634,0 -0.907,0.181 -0.907,0.498 l 0,14.722 c 0,0.474 0.204,0.678 0.68,0.678 l 4.597,0 c 1.948,0 5.051,-0.611 5.051,-4.438"
           style="fill:#ffffff;fill-opacity:1;fill-rule:nonzero;stroke:none"
           id="path3315"
           inkscape:connector-curvature="0" />
      </g>
      <g
         id="g3317"
         transform="translate(501.8697,247.1164)">
        <path
           d="m 0,0 0,-14.948 c 0,-0.317 -0.273,-0.497 -0.907,-0.497 l -0.18,0 c -0.634,0 -0.906,0.18 -0.906,0.497 l 0,14.948 c 0,0.316 0.272,0.497 0.906,0.497 l 0.18,0 C -0.273,0.497 0,0.316 0,0"
           style="fill:#ffffff;fill-opacity:1;fill-rule:nonzero;stroke:none"
           id="path3319"
           inkscape:connector-curvature="0" />
      </g>
      <g
         id="g3321"
         transform="translate(515.2992,246.89)">
        <path
           d="m 0,0 0,-0.363 c 0,-0.475 -0.136,-0.679 -0.454,-0.679 l -6.59,0 0,-5.164 5.911,0 c 0.317,0 0.452,-0.203 0.452,-0.68 l 0,-0.361 c 0,-0.476 -0.135,-0.68 -0.452,-0.68 l -5.911,0 0,-5.525 6.614,0 c 0.317,0 0.452,-0.205 0.452,-0.68 l 0,-0.363 c 0,-0.476 -0.135,-0.68 -0.452,-0.68 l -7.927,0 c -0.476,0 -0.68,0.204 -0.68,0.68 l 0,14.495 c 0,0.476 0.204,0.68 0.68,0.68 l 7.903,0 C -0.136,0.68 0,0.476 0,0"
           style="fill:#ffffff;fill-opacity:1;fill-rule:nonzero;stroke:none"
           id="path3323"
           inkscape:connector-curvature="0" />
      </g>
      <g
         id="g3325"
         transform="translate(536.1116,247.1164)">
        <path
           d="m 0,0 0,-14.948 c 0,-0.317 -0.273,-0.497 -0.906,-0.497 l -0.452,0 c -0.431,0 -0.658,0.112 -0.793,0.316 l -7.475,11.279 -0.612,1.155 0,-12.253 c 0,-0.317 -0.271,-0.497 -0.905,-0.497 l -0.158,0 c -0.635,0 -0.906,0.18 -0.906,0.497 l 0,14.948 c 0,0.316 0.271,0.497 0.906,0.497 l 0.474,0 c 0.5,0 0.726,-0.112 0.952,-0.429 l 7.225,-10.916 0.68,-1.268 0,12.116 c 0,0.316 0.271,0.497 0.906,0.497 l 0.158,0 C -0.273,0.497 0,0.316 0,0"
           style="fill:#ffffff;fill-opacity:1;fill-rule:nonzero;stroke:none"
           id="path3327"
           inkscape:connector-curvature="0" />
      </g>
      <g
         id="g3329"
         transform="translate(549.3818,246.89)">
        <path
           d="m 0,0 0,-0.363 c 0,-0.475 -0.135,-0.679 -0.452,-0.679 l -6.59,0 0,-5.164 5.91,0 c 0.317,0 0.452,-0.203 0.452,-0.68 l 0,-0.361 c 0,-0.476 -0.135,-0.68 -0.452,-0.68 l -5.91,0 0,-5.525 6.612,0 c 0.319,0 0.454,-0.205 0.454,-0.68 l 0,-0.363 c 0,-0.476 -0.135,-0.68 -0.454,-0.68 l -7.926,0 c -0.476,0 -0.679,0.204 -0.679,0.68 l 0,14.495 c 0,0.476 0.203,0.68 0.679,0.68 l 7.904,0 C -0.135,0.68 0,0.476 0,0"
           style="fill:#ffffff;fill-opacity:1;fill-rule:nonzero;stroke:none"
           id="path3331"
           inkscape:connector-curvature="0" />
      </g>
      <g
         id="g3333"
         transform="translate(570.1509,247.2297)">
        <path
           d="m 0,0 c 0,-0.046 -0.046,-0.227 -0.068,-0.316 l -3.919,-14.881 c -0.068,-0.271 -0.452,-0.362 -0.905,-0.362 l -0.929,0 c -0.453,0 -0.837,0.091 -0.907,0.362 l -2.468,9.218 -0.476,2.944 -0.474,-2.944 -2.47,-9.218 c -0.068,-0.271 -0.453,-0.362 -0.906,-0.362 l -0.928,0 c -0.453,0 -0.838,0.091 -0.907,0.362 l -3.872,14.881 c -0.022,0.089 -0.069,0.225 -0.069,0.316 0,0.227 0.295,0.385 0.975,0.385 l 0.227,0 c 0.453,0 0.838,-0.091 0.906,-0.362 l 2.877,-11.143 c 0.157,-0.612 0.383,-2.039 0.406,-2.107 l 0.544,2.174 2.74,11.053 c 0.069,0.294 0.432,0.385 0.883,0.385 l 0.363,0 c 0.453,0 0.816,-0.091 0.882,-0.385 l 2.81,-11.144 c 0.204,-0.792 0.385,-2.083 0.385,-2.083 l 0.542,2.152 2.742,11.098 c 0.068,0.271 0.454,0.362 0.906,0.362 l 0.136,0 C -0.296,0.385 0,0.249 0,0"
           style="fill:#ffffff;fill-opacity:1;fill-rule:nonzero;stroke:none"
           id="path3335"
           inkscape:connector-curvature="0" />
      </g>
      <g
         id="g3337"
         transform="translate(580.2954,246.3241)">
        <path
           d="m 0,0 c 0,-0.34 -0.499,-1.201 -0.725,-1.201 -0.339,0 -1.177,0.861 -2.966,0.861 -1.7,0 -2.922,-0.906 -2.922,-2.56 0,-1.653 1.45,-2.083 3.08,-2.694 2.016,-0.77 4.281,-1.677 4.281,-4.757 0,-2.717 -1.971,-4.394 -5.028,-4.394 -2.651,0 -4.688,1.043 -4.688,1.654 0,0.364 0.543,1.225 0.791,1.225 0.295,0 1.564,-1.157 3.897,-1.157 1.721,0 2.967,1.065 2.967,2.672 0,1.813 -1.677,2.402 -3.421,3.08 -1.924,0.748 -3.941,1.495 -3.941,4.462 0,2.447 1.994,4.19 5.03,4.19 C -2.355,1.381 0,0.815 0,0"
           style="fill:#ffffff;fill-opacity:1;fill-rule:nonzero;stroke:none"
           id="path3339"
           inkscape:connector-curvature="0" />
      </g>
      <g
         id="g3341"
         transform="translate(507.7794,259.7604)">
        <path
           d="m 0,0 c 0.096,-0.079 0.201,-0.151 0.316,-0.22 0.118,-0.067 0.24,-0.122 0.367,-0.168 0.126,-0.046 0.257,-0.078 0.39,-0.097 0.133,-0.018 0.264,-0.018 0.392,0 0.127,0.021 0.249,0.062 0.365,0.122 0.116,0.061 0.223,0.149 0.318,0.264 C 2.235,0.006 2.299,0.116 2.34,0.229 2.381,0.343 2.403,0.459 2.405,0.575 2.408,0.691 2.393,0.807 2.361,0.922 2.328,1.038 2.283,1.149 2.227,1.256 2.168,1.363 2.096,1.468 2.014,1.567 1.93,1.668 1.845,1.754 1.759,1.826 1.666,1.902 1.555,1.978 1.426,2.052 1.297,2.125 1.167,2.183 1.037,2.226 0.906,2.269 0.775,2.298 0.643,2.313 0.51,2.327 0.381,2.325 0.257,2.303 0.132,2.282 0.015,2.242 -0.096,2.181 -0.208,2.12 -0.308,2.037 -0.396,1.931 -0.527,1.774 -0.608,1.607 -0.637,1.43 -0.665,1.253 -0.656,1.079 -0.609,0.906 -0.561,0.733 -0.485,0.569 -0.376,0.413 -0.268,0.256 -0.142,0.118 0,0 m -0.243,-0.435 c -0.107,0.089 -0.208,0.192 -0.298,0.309 -0.093,0.115 -0.17,0.242 -0.233,0.376 -0.064,0.136 -0.111,0.279 -0.141,0.43 -0.03,0.149 -0.038,0.301 -0.025,0.456 0.013,0.156 0.053,0.314 0.117,0.472 0.064,0.156 0.159,0.311 0.286,0.462 0.129,0.157 0.267,0.283 0.414,0.377 C 0.023,2.542 0.172,2.612 0.325,2.655 0.478,2.7 0.63,2.722 0.784,2.72 0.937,2.718 1.087,2.698 1.233,2.661 1.378,2.624 1.515,2.57 1.648,2.502 1.78,2.435 1.898,2.355 2.005,2.267 2.111,2.179 2.209,2.077 2.299,1.961 2.389,1.845 2.466,1.719 2.531,1.584 2.596,1.45 2.644,1.306 2.674,1.157 2.704,1.007 2.712,0.854 2.699,0.697 2.684,0.54 2.646,0.383 2.583,0.226 2.519,0.068 2.425,-0.086 2.299,-0.238 2.163,-0.4 2.022,-0.53 1.874,-0.629 1.728,-0.727 1.579,-0.799 1.428,-0.845 1.277,-0.89 1.124,-0.912 0.974,-0.909 c -0.151,0.002 -0.298,0.023 -0.441,0.061 -0.143,0.04 -0.28,0.096 -0.412,0.166 -0.131,0.072 -0.252,0.154 -0.364,0.247"
           style="fill:#ffffff;fill-opacity:1;fill-rule:nonzero;stroke:none"
           id="path3343"
           inkscape:connector-curvature="0" />
      </g>
      <g
         id="g3345"
         transform="translate(514.2547,263.7071)">
        <path
           d="m 0,0 -0.18,-0.161 -3.557,0.727 -0.005,-0.004 1.44,-1.585 c 0.055,-0.064 0.112,-0.127 0.166,-0.189 0.055,-0.061 0.106,-0.123 0.155,-0.187 l 0.257,0.256 0.144,-0.162 -0.681,-0.609 -0.109,0.121 c 0.057,0.051 0.093,0.101 0.108,0.15 0.015,0.05 0.016,0.097 0.007,0.141 -0.009,0.042 -0.027,0.083 -0.053,0.121 -0.027,0.038 -0.053,0.072 -0.078,0.101 l -1.825,2.047 -0.234,-0.239 -0.147,0.163 0.444,0.397 3.481,-0.704 0.003,0.003 -1.52,1.707 c -0.092,0.105 -0.169,0.198 -0.229,0.28 L -2.666,2.118 -2.812,2.282 -2.127,2.894 -2.018,2.773 C -2.086,2.707 -2.127,2.648 -2.14,2.594 -2.154,2.539 -2.149,2.485 -2.127,2.433 -2.106,2.38 -2.07,2.327 -2.021,2.273 -1.971,2.219 -1.916,2.159 -1.857,2.092 L 0,0 Z"
           style="fill:#ffffff;fill-opacity:1;fill-rule:nonzero;stroke:none"
           id="path3347"
           inkscape:connector-curvature="0" />
      </g>
      <g
         id="g3349"
         transform="translate(515.8331,265.6882)">
        <path
           d="M 0,0 C 0.051,-0.076 0.094,-0.14 0.126,-0.194 0.16,-0.249 0.186,-0.295 0.205,-0.333 L 0.97,0.203 C 1.055,0.263 1.121,0.329 1.17,0.399 1.22,0.472 1.247,0.55 1.254,0.635 1.261,0.72 1.247,0.814 1.211,0.916 1.174,1.019 1.115,1.131 1.033,1.253 l 0.137,0.094 0.556,-0.87 -2.048,-1.392 -0.093,0.138 c 0.076,0.055 0.125,0.109 0.145,0.161 0.022,0.052 0.026,0.107 0.013,0.161 -0.015,0.056 -0.041,0.115 -0.083,0.175 -0.04,0.063 -0.086,0.13 -0.136,0.202 L -1.687,1.709 C -1.725,1.766 -1.761,1.82 -1.793,1.871 -1.825,1.923 -1.853,1.973 -1.875,2.018 L -2.162,1.797 -2.285,1.978 -1.355,2.61 -1.264,2.474 C -1.339,2.419 -1.388,2.364 -1.41,2.311 -1.431,2.258 -1.434,2.205 -1.421,2.15 -1.406,2.094 -1.379,2.036 -1.338,1.975 -1.298,1.914 -1.253,1.846 -1.202,1.772 L 0,0 Z"
           style="fill:#ffffff;fill-opacity:1;fill-rule:nonzero;stroke:none"
           id="path3351"
           inkscape:connector-curvature="0" />
      </g>
      <g
         id="g3353"
         transform="translate(517.5583,269.5299)">
        <path
           d="M 0,0 C -0.032,0.061 -0.062,0.118 -0.09,0.173 -0.116,0.228 -0.138,0.28 -0.156,0.326 L -0.464,0.136 -0.568,0.329 0.42,0.863 0.498,0.719 C 0.417,0.672 0.363,0.622 0.337,0.572 0.31,0.521 0.3,0.469 0.309,0.412 0.318,0.355 0.338,0.295 0.373,0.23 0.407,0.165 0.446,0.094 0.488,0.015 l 1.009,-1.87 c 0.044,-0.079 0.08,-0.149 0.11,-0.207 0.028,-0.058 0.05,-0.109 0.064,-0.149 l 0.308,0.189 0.103,-0.191 -0.989,-0.534 -0.077,0.143 c 0.081,0.049 0.136,0.098 0.162,0.148 0.027,0.048 0.036,0.101 0.027,0.158 C 1.198,-2.242 1.176,-2.181 1.141,-2.114 1.107,-2.05 1.07,-1.978 1.028,-1.9 L 0,0 Z"
           style="fill:#ffffff;fill-opacity:1;fill-rule:nonzero;stroke:none"
           id="path3355"
           inkscape:connector-curvature="0" />
      </g>
      <g
         id="g3357"
         transform="translate(523.6619,268.9878)">
        <path
           d="M 0,0 -0.224,-0.09 -3.316,1.814 -3.323,1.811 -2.514,-0.17 c 0.032,-0.08 0.062,-0.159 0.092,-0.235 0.029,-0.078 0.057,-0.153 0.082,-0.229 l 0.328,0.151 0.081,-0.202 -0.85,-0.337 -0.061,0.151 c 0.072,0.028 0.123,0.063 0.153,0.104 0.031,0.042 0.049,0.084 0.055,0.128 0.006,0.045 0.003,0.09 -0.009,0.134 -0.011,0.045 -0.023,0.085 -0.038,0.121 L -3.692,2.165 -3.994,2.021 -4.075,2.225 -3.523,2.446 -0.495,0.59 -0.49,0.591 -1.332,2.717 C -1.385,2.846 -1.425,2.961 -1.454,3.058 L -1.778,2.905 -1.859,3.109 -1.006,3.448 -0.944,3.297 C -1.032,3.259 -1.089,3.218 -1.12,3.171 -1.152,3.124 -1.166,3.072 -1.164,3.016 -1.162,2.959 -1.147,2.897 -1.119,2.829 -1.09,2.761 -1.06,2.685 -1.028,2.602 L 0,0 Z"
           style="fill:#ffffff;fill-opacity:1;fill-rule:nonzero;stroke:none"
           id="path3359"
           inkscape:connector-curvature="0" />
      </g>
      <g
         id="g3361"
         transform="translate(525.8062,270.3004)">
        <path
           d="M 0,0 C 0.022,-0.09 0.04,-0.166 0.052,-0.227 0.064,-0.289 0.072,-0.34 0.077,-0.383 L 1,-0.14 c 0.106,0.027 0.198,0.063 0.277,0.109 C 1.356,0.015 1.42,0.074 1.466,0.146 1.512,0.219 1.541,0.307 1.551,0.411 1.56,0.514 1.547,0.638 1.512,0.781 l 0.166,0.042 0.203,-0.952 -2.502,-0.616 -0.039,0.161 c 0.077,0.021 0.135,0.048 0.174,0.082 0.04,0.033 0.066,0.073 0.078,0.118 0.013,0.045 0.014,0.095 0.007,0.151 -0.009,0.056 -0.02,0.118 -0.037,0.183 l -0.035,0.143 -0.516,2.096 c -0.016,0.066 -0.031,0.13 -0.043,0.19 -0.012,0.059 -0.021,0.114 -0.026,0.165 L -1.404,2.437 -1.457,2.649 0.875,3.224 1.107,2.38 0.95,2.34 C 0.915,2.479 0.872,2.589 0.817,2.669 0.764,2.75 0.702,2.808 0.634,2.844 0.565,2.881 0.49,2.9 0.411,2.899 0.33,2.898 0.246,2.888 0.158,2.865 L -0.288,2.749 C -0.376,2.722 -0.443,2.69 -0.487,2.654 -0.531,2.619 -0.559,2.574 -0.571,2.522 -0.583,2.469 -0.582,2.408 -0.569,2.335 -0.555,2.263 -0.536,2.178 -0.512,2.078 L -0.319,1.297 0.589,1.521 0.451,1.931 0.666,1.985 0.916,0.964 0.759,0.924 C 0.735,1.019 0.708,1.093 0.679,1.145 0.648,1.197 0.611,1.234 0.568,1.256 0.524,1.278 0.475,1.287 0.418,1.283 0.361,1.279 0.293,1.268 0.217,1.249 0.195,1.244 0.171,1.238 0.148,1.232 0.124,1.226 -0.016,1.185 -0.274,1.11 L 0,0 Z"
           style="fill:#ffffff;fill-opacity:1;fill-rule:nonzero;stroke:none"
           id="path3363"
           inkscape:connector-curvature="0" />
      </g>
      <g
         id="g3365"
         transform="translate(531.9185,272.2272)">
        <path
           d="m 0,0 c 0.062,-0.005 0.117,-0.008 0.163,-0.007 0.046,0 0.101,0.003 0.162,0.005 C 0.466,0.005 0.599,0.031 0.723,0.08 0.847,0.126 0.954,0.193 1.044,0.278 1.133,0.361 1.202,0.463 1.252,0.58 1.301,0.698 1.322,0.829 1.315,0.975 1.308,1.133 1.277,1.266 1.223,1.373 1.166,1.481 1.092,1.568 0.998,1.633 0.903,1.698 0.793,1.743 0.665,1.768 0.537,1.793 0.396,1.802 0.245,1.795 0.154,1.791 0.089,1.773 0.045,1.744 0.001,1.713 -0.028,1.671 -0.045,1.618 -0.062,1.566 -0.068,1.503 -0.064,1.432 -0.062,1.359 -0.058,1.278 -0.054,1.19 L 0,0 Z M 0.188,-0.201 C 0.171,-0.202 0.145,-0.203 0.11,-0.205 0.076,-0.206 0.042,-0.207 0.01,-0.207 L 0.042,-0.93 c 0.004,-0.09 0.006,-0.168 0.007,-0.234 0,-0.065 -0.002,-0.119 -0.006,-0.161 l 0.458,0.046 0.011,-0.222 -1.222,-0.057 -0.008,0.164 c 0.095,0.007 0.164,0.027 0.21,0.062 0.045,0.032 0.076,0.075 0.093,0.13 0.018,0.055 0.025,0.119 0.023,0.192 -0.003,0.075 -0.006,0.155 -0.01,0.243 L -0.498,1.39 c -0.004,0.069 -0.006,0.133 -0.006,0.194 0,0.061 0.002,0.116 0.006,0.168 l -0.36,-0.038 -0.011,0.221 c 0.177,0.011 0.357,0.021 0.541,0.031 0.186,0.008 0.376,0.018 0.573,0.026 C 0.727,2.015 1.099,1.949 1.359,1.799 1.637,1.635 1.783,1.381 1.799,1.04 1.802,0.971 1.798,0.892 1.785,0.808 1.774,0.723 1.747,0.635 1.702,0.542 1.66,0.45 1.6,0.361 1.521,0.275 1.443,0.189 1.344,0.113 1.223,0.047 1.1,-0.02 0.955,-0.075 0.784,-0.12 0.614,-0.164 0.415,-0.191 0.188,-0.201"
           style="fill:#ffffff;fill-opacity:1;fill-rule:nonzero;stroke:none"
           id="path3367"
           inkscape:connector-curvature="0" />
      </g>
      <g
         id="g3369"
         transform="translate(535.8424,271.2749)">
        <path
           d="m 0,0 c -0.008,-0.09 -0.014,-0.167 -0.021,-0.23 -0.006,-0.064 -0.016,-0.115 -0.026,-0.158 l 0.933,-0.054 c 0.104,-0.006 0.198,0.004 0.281,0.03 0.082,0.026 0.152,0.07 0.211,0.132 0.058,0.063 0.105,0.146 0.14,0.247 0.036,0.103 0.058,0.228 0.07,0.375 L 1.755,0.331 1.65,-0.697 l -2.47,0.181 0.013,0.165 c 0.094,-0.003 0.164,0.009 0.214,0.036 0.05,0.027 0.086,0.066 0.109,0.119 0.023,0.053 0.039,0.114 0.045,0.188 0.005,0.075 0.011,0.155 0.019,0.242 l 0.158,2.154 c 0.005,0.068 0.012,0.133 0.018,0.193 0.008,0.061 0.016,0.116 0.025,0.166 L -0.579,2.751 -0.563,2.97 0.558,2.887 0.545,2.725 C 0.452,2.728 0.38,2.716 0.33,2.688 0.28,2.659 0.245,2.62 0.222,2.568 0.198,2.515 0.183,2.452 0.177,2.381 0.171,2.306 0.165,2.226 0.157,2.137 L 0,0 Z"
           style="fill:#ffffff;fill-opacity:1;fill-rule:nonzero;stroke:none"
           id="path3371"
           inkscape:connector-curvature="0" />
      </g>
      <g
         id="g3373"
         transform="translate(540.1972,272.4559)">
        <path
           d="M 0,0 C -0.116,-0.194 -0.221,-0.367 -0.309,-0.515 -0.398,-0.664 -0.477,-0.797 -0.548,-0.913 L 0.585,-1.141 0.425,-0.135 0.327,0.511 0.316,0.513 0,0 Z M -0.939,-1.599 C -0.96,-1.636 -0.978,-1.668 -0.995,-1.695 -1.011,-1.723 -1.025,-1.75 -1.04,-1.773 -1.055,-1.797 -1.07,-1.821 -1.082,-1.843 -1.098,-1.864 -1.113,-1.887 -1.131,-1.912 l 0.387,-0.058 -0.043,-0.213 -0.914,0.185 0.031,0.159 c 0.074,-0.014 0.137,-0.012 0.19,0.009 0.05,0.02 0.098,0.054 0.14,0.102 0.044,0.049 0.086,0.106 0.127,0.176 0.041,0.07 0.088,0.146 0.14,0.23 L 0.492,1.222 0.608,1.198 1.137,-1.811 C 1.144,-1.847 1.15,-1.89 1.156,-1.94 1.162,-1.99 1.166,-2.042 1.17,-2.093 1.175,-2.145 1.175,-2.197 1.172,-2.246 1.168,-2.295 1.164,-2.338 1.154,-2.374 L 1.493,-2.423 1.45,-2.636 0.329,-2.408 0.361,-2.249 c 0.092,-0.016 0.161,-0.013 0.21,0.009 0.051,0.024 0.086,0.058 0.107,0.103 0.019,0.043 0.029,0.092 0.029,0.148 0,0.055 -0.005,0.107 -0.013,0.156 l -0.08,0.496 -1.279,0.228 c -0.054,-0.093 -0.103,-0.179 -0.148,-0.258 -0.044,-0.079 -0.086,-0.156 -0.126,-0.232"
           style="fill:#ffffff;fill-opacity:1;fill-rule:nonzero;stroke:none"
           id="path3375"
           inkscape:connector-curvature="0" />
      </g>
      <g
         id="g3377"
         transform="translate(545.78,271.0437)">
        <path
           d="M 0,0 C 0.043,0.142 0.075,0.268 0.091,0.377 0.107,0.488 0.104,0.585 0.081,0.669 0.058,0.753 0.013,0.826 -0.055,0.885 -0.121,0.945 -0.216,0.996 -0.338,1.037 l -0.401,0.132 -0.875,-2.575 c -0.055,-0.17 -0.103,-0.293 -0.138,-0.371 l 0.398,-0.112 -0.07,-0.205 -1.111,0.373 0.054,0.154 c 0.087,-0.026 0.159,-0.031 0.215,-0.016 0.053,0.016 0.099,0.047 0.136,0.092 0.036,0.045 0.065,0.103 0.088,0.172 0.024,0.07 0.049,0.144 0.076,0.225 L -1.15,1.303 -1.641,1.467 C -1.741,1.499 -1.832,1.511 -1.91,1.501 -1.991,1.491 -2.063,1.46 -2.13,1.407 -2.196,1.353 -2.255,1.278 -2.309,1.183 -2.363,1.087 -2.414,0.969 -2.46,0.829 L -2.637,0.888 -2.271,1.879 0.488,0.95 0.179,-0.061 0,0 Z"
           style="fill:#ffffff;fill-opacity:1;fill-rule:nonzero;stroke:none"
           id="path3379"
           inkscape:connector-curvature="0" />
      </g>
      <g
         id="g3381"
         transform="translate(547.251,268.3912)">
        <path
           d="m 0,0 c -0.041,-0.083 -0.075,-0.152 -0.104,-0.209 -0.032,-0.06 -0.059,-0.104 -0.082,-0.141 l 0.466,-0.202 -0.094,-0.195 -1.146,0.55 0.07,0.147 c 0.087,-0.038 0.159,-0.053 0.213,-0.046 0.057,0.007 0.104,0.031 0.146,0.072 0.041,0.04 0.077,0.093 0.109,0.159 0.033,0.067 0.07,0.14 0.108,0.218 L 0.62,2.301 C 0.65,2.363 0.681,2.422 0.707,2.475 0.736,2.529 0.764,2.578 0.792,2.62 L 0.458,2.757 0.552,2.954 2.639,1.952 2.285,1.152 2.137,1.223 C 2.2,1.357 2.236,1.472 2.243,1.571 2.25,1.669 2.236,1.756 2.202,1.829 2.167,1.902 2.116,1.965 2.048,2.016 1.979,2.068 1.902,2.113 1.817,2.152 L 1.485,2.301 C 1.401,2.338 1.329,2.353 1.273,2.345 1.216,2.337 1.166,2.313 1.125,2.272 1.084,2.232 1.048,2.178 1.015,2.112 0.981,2.046 0.946,1.973 0.909,1.896 L 0.536,1.118 1.319,0.743 1.471,1.147 1.673,1.051 1.218,0.103 1.071,0.175 C 1.112,0.263 1.139,0.336 1.147,0.396 1.157,0.455 1.152,0.507 1.133,0.551 1.113,0.596 1.081,0.635 1.036,0.667 0.989,0.7 0.93,0.734 0.857,0.769 0.838,0.778 0.816,0.789 0.794,0.8 0.772,0.81 0.658,0.858 0.453,0.944 L 0,0 Z"
           style="fill:#ffffff;fill-opacity:1;fill-rule:nonzero;stroke:none"
           id="path3383"
           inkscape:connector-curvature="0" />
      </g>
      <g
         id="g3385"
         transform="translate(550.847,267.9064)">
        <path
           d="m 0,0 c -0.066,-0.103 -0.128,-0.217 -0.182,-0.34 -0.054,-0.123 -0.095,-0.25 -0.127,-0.382 -0.032,-0.132 -0.048,-0.264 -0.053,-0.399 -0.004,-0.135 0.012,-0.264 0.046,-0.389 0.032,-0.125 0.088,-0.24 0.16,-0.35 0.073,-0.109 0.173,-0.203 0.298,-0.285 0.115,-0.076 0.23,-0.126 0.348,-0.155 0.117,-0.027 0.234,-0.036 0.35,-0.025 0.115,0.009 0.23,0.037 0.341,0.082 0.11,0.045 0.215,0.101 0.315,0.171 0.101,0.069 0.195,0.151 0.287,0.246 0.09,0.094 0.167,0.188 0.228,0.283 0.066,0.099 0.129,0.218 0.188,0.354 0.059,0.137 0.102,0.273 0.13,0.407 0.027,0.134 0.043,0.269 0.043,0.402 0,0.132 -0.018,0.261 -0.054,0.381 C 2.282,0.123 2.23,0.235 2.156,0.339 2.084,0.444 1.991,0.533 1.874,0.61 1.704,0.722 1.528,0.783 1.349,0.791 1.171,0.801 0.998,0.771 0.833,0.705 0.668,0.64 0.512,0.544 0.368,0.419 0.226,0.294 0.102,0.154 0,0 m -0.459,0.192 c 0.077,0.117 0.167,0.228 0.273,0.331 0.105,0.105 0.221,0.196 0.349,0.274 C 0.291,0.876 0.428,0.938 0.574,0.985 0.718,1.032 0.869,1.057 1.025,1.061 1.181,1.065 1.342,1.044 1.505,0.997 1.67,0.951 1.834,0.873 1.997,0.765 2.168,0.654 2.309,0.53 2.419,0.395 2.529,0.26 2.616,0.119 2.676,-0.027 2.737,-0.173 2.776,-0.322 2.792,-0.477 2.807,-0.628 2.803,-0.779 2.782,-0.928 2.761,-1.077 2.725,-1.22 2.671,-1.358 2.619,-1.496 2.554,-1.624 2.478,-1.739 2.402,-1.855 2.311,-1.963 2.206,-2.066 2.1,-2.169 1.983,-2.259 1.857,-2.339 1.73,-2.418 1.595,-2.48 1.449,-2.528 1.303,-2.575 1.151,-2.601 0.994,-2.605 0.837,-2.608 0.678,-2.587 0.513,-2.542 0.349,-2.496 0.186,-2.42 0.022,-2.311 c -0.177,0.116 -0.323,0.242 -0.437,0.378 -0.114,0.134 -0.202,0.274 -0.265,0.419 -0.061,0.145 -0.1,0.293 -0.115,0.443 -0.014,0.151 -0.011,0.301 0.013,0.446 0.023,0.146 0.062,0.29 0.118,0.428 0.058,0.138 0.127,0.269 0.205,0.389"
           style="fill:#ffffff;fill-opacity:1;fill-rule:nonzero;stroke:none"
           id="path3387"
           inkscape:connector-curvature="0" />
      </g>
      <g
         id="g3389"
         transform="translate(555.0841,264.7278)">
        <path
           d="m 0,0 c 0.037,-0.037 0.072,-0.072 0.107,-0.104 0.035,-0.034 0.075,-0.069 0.122,-0.105 0.105,-0.087 0.21,-0.156 0.315,-0.207 0.105,-0.053 0.21,-0.081 0.313,-0.088 0.104,-0.006 0.206,0.013 0.305,0.058 0.1,0.045 0.198,0.122 0.294,0.231 C 1.621,-0.027 1.69,0.163 1.667,0.353 1.644,0.543 1.515,0.74 1.284,0.943 1.213,1.005 1.15,1.042 1.096,1.051 1.044,1.061 0.99,1.053 0.94,1.026 0.891,1 0.844,0.959 0.795,0.905 0.746,0.851 0.693,0.79 0.634,0.722 L 0,0 Z m 0.127,-0.37 c -0.045,0.034 -0.088,0.071 -0.129,0.108 -0.043,0.038 -0.084,0.078 -0.122,0.12 L -0.766,-0.875 C -0.826,-0.942 -0.879,-1 -0.923,-1.048 -0.968,-1.094 -1.008,-1.132 -1.04,-1.16 l 0.286,-0.223 -0.143,-0.163 -0.846,0.741 0.106,0.121 c 0.075,-0.058 0.139,-0.091 0.195,-0.1 0.054,-0.007 0.108,0.002 0.16,0.03 0.048,0.028 0.099,0.068 0.147,0.124 0.049,0.055 0.103,0.116 0.161,0.181 L 0.45,1.174 C 0.495,1.226 0.538,1.273 0.581,1.318 0.622,1.363 0.663,1.402 0.7,1.436 L 0.414,1.657 0.561,1.824 C 0.703,1.701 0.85,1.579 0.993,1.455 1.137,1.33 1.28,1.203 1.425,1.074 1.602,0.911 1.741,0.758 1.843,0.614 1.945,0.47 2.011,0.332 2.045,0.202 2.075,0.073 2.075,-0.05 2.043,-0.165 2.009,-0.281 1.947,-0.391 1.856,-0.494 1.792,-0.567 1.716,-0.635 1.631,-0.693 1.543,-0.752 1.444,-0.793 1.33,-0.816 1.219,-0.839 1.093,-0.837 0.955,-0.81 0.816,-0.784 0.663,-0.723 0.493,-0.627 0.511,-0.705 0.517,-0.789 0.507,-0.879 0.497,-0.968 0.484,-1.07 0.467,-1.184 L 0.369,-1.812 C 0.357,-1.889 0.348,-1.963 0.338,-2.032 0.33,-2.101 0.328,-2.167 0.336,-2.23 0.342,-2.292 0.359,-2.35 0.387,-2.408 0.414,-2.463 0.458,-2.517 0.517,-2.569 L 0.41,-2.692 -0.064,-2.277 c -0.009,0.063 -0.015,0.125 -0.016,0.183 -0.002,0.056 0,0.114 0.004,0.171 0.004,0.058 0.01,0.114 0.015,0.173 0.008,0.057 0.016,0.117 0.026,0.183 l 0.101,0.622 c 0.006,0.042 0.014,0.086 0.023,0.134 0.008,0.046 0.015,0.096 0.024,0.145 0.007,0.05 0.012,0.1 0.015,0.151 0.003,0.049 0.003,0.098 -0.001,0.145"
           style="fill:#ffffff;fill-opacity:1;fill-rule:nonzero;stroke:none"
           id="path3391"
           inkscape:connector-curvature="0" />
      </g>
      <g
         id="g3393"
         transform="translate(558.9473,263.5371)">
        <path
           d="M 0,0 0.493,-0.581 C 0.368,-0.839 0.247,-1.085 0.13,-1.322 0.014,-1.558 -0.103,-1.791 -0.217,-2.02 -0.33,-2.249 -0.443,-2.476 -0.558,-2.703 -0.671,-2.93 -0.785,-3.162 -0.901,-3.399 l 0.006,-0.008 c 0.046,0.014 0.098,0.032 0.155,0.05 0.057,0.019 0.114,0.04 0.173,0.06 0.06,0.021 0.118,0.04 0.174,0.06 0.056,0.018 0.108,0.035 0.153,0.051 0.372,0.126 0.749,0.246 1.131,0.363 0.388,0.118 0.778,0.244 1.178,0.381 L 2.546,-3.006 2.421,-3.112 C 2.381,-3.063 2.338,-3.027 2.295,-3.005 2.252,-2.982 2.204,-2.973 2.152,-2.978 2.1,-2.984 2.045,-3.004 1.984,-3.039 1.924,-3.075 1.855,-3.129 1.781,-3.2 L 0.132,-4.77 C 0.089,-4.809 0.047,-4.848 0.008,-4.884 -0.031,-4.919 -0.068,-4.951 -0.101,-4.979 l 0.248,-0.265 -0.167,-0.142 -0.722,0.854 0.124,0.107 c 0.053,-0.059 0.103,-0.097 0.153,-0.115 0.049,-0.017 0.102,-0.019 0.155,-0.004 0.053,0.015 0.11,0.044 0.169,0.087 0.057,0.043 0.121,0.096 0.19,0.161 l 1.543,1.475 C 1.565,-2.83 1.54,-2.838 1.513,-2.846 1.484,-2.855 1.456,-2.864 1.427,-2.874 l -2.846,-0.937 -0.094,0.115 c 0.116,0.241 0.231,0.482 0.346,0.723 0.112,0.242 0.231,0.485 0.349,0.726 0.119,0.242 0.239,0.484 0.363,0.727 0.125,0.243 0.254,0.484 0.388,0.726 l -0.172,-0.138 c -0.062,-0.049 -0.134,-0.107 -0.214,-0.171 -0.08,-0.065 -0.167,-0.135 -0.259,-0.206 -0.092,-0.073 -0.187,-0.15 -0.285,-0.228 -0.1,-0.08 -0.2,-0.16 -0.299,-0.241 -0.1,-0.081 -0.199,-0.16 -0.296,-0.238 -0.096,-0.077 -0.19,-0.152 -0.275,-0.224 -0.059,-0.046 -0.116,-0.093 -0.174,-0.139 -0.055,-0.047 -0.11,-0.086 -0.163,-0.12 l 0.257,-0.274 -0.165,-0.14 -0.616,0.727 0.124,0.106 c 0.052,-0.058 0.101,-0.097 0.15,-0.114 0.046,-0.017 0.093,-0.021 0.14,-0.012 0.047,0.009 0.095,0.028 0.139,0.058 0.047,0.031 0.094,0.065 0.142,0.101 L 0.078,-0.403 -0.163,-0.138 0,0 Z"
           style="fill:#ffffff;fill-opacity:1;fill-rule:nonzero;stroke:none"
           id="path3395"
           inkscape:connector-curvature="0" />
      </g>
      <g
         id="g3397"
         transform="translate(534.0502,285.3473)">
        <path
           d="m 0,0 c 20.396,0 38.375,-13.68 43.888,-33.249 0,0 0.087,-0.447 0.989,-0.447 l 0.102,0 c 1.046,0 0.982,0.447 0.982,0.447 C 40.383,-12.54 21.474,1.997 0,1.997 c -21.472,0 -40.383,-14.537 -45.961,-35.246 0,0 -0.064,-0.447 0.982,-0.447 l 0.1,0 c 0.904,0 0.991,0.447 0.991,0.447 C -38.375,-13.68 -20.396,0 0,0"
           style="fill:#ffffff;fill-opacity:1;fill-rule:nonzero;stroke:none"
           id="path3399"
           inkscape:connector-curvature="0" />
      </g>
      <g
         id="g3401"
         transform="translate(533.9094,193.9384)">
        <path
           d="m 0,0 c -20.396,0 -38.375,13.679 -43.888,33.249 0,0 -0.086,0.446 -0.991,0.446 l -0.1,0 c -1.046,0 -0.983,-0.446 -0.983,-0.446 5.578,-20.71 24.49,-35.247 45.962,-35.247 21.472,0 40.383,14.537 45.961,35.247 0,0 0.063,0.446 -0.983,0.446 l -0.1,0 c -0.903,0 -0.99,-0.446 -0.99,-0.446 C 38.376,13.681 20.396,0 0,0"
           style="fill:#ffffff;fill-opacity:1;fill-rule:nonzero;stroke:none"
           id="path3403"
           inkscape:connector-curvature="0" />
      </g>
      <g
         id="g3405"
         transform="translate(523.2567,259.3665)">
        <path
           d="M 0,0 C -0.555,-1.546 -0.585,-3.274 0.013,-4.926 L 5.954,-2.448 0,0 Z"
           style="fill:#ffffff;fill-opacity:1;fill-rule:nonzero;stroke:none"
           id="path3407"
           inkscape:connector-curvature="0" />
      </g>
      <g
         id="g3409"
         transform="translate(537.2231,256.5012)">
        <path
           d="M 0,0 C -0.7,1.485 -1.901,2.73 -3.492,3.474 L -5.942,-2.478 0,0 Z"
           style="fill:#ffffff;fill-opacity:1;fill-rule:nonzero;stroke:none"
           id="path3411"
           inkscape:connector-curvature="0" />
      </g>
      <g
         id="g3413"
         transform="translate(541.7877,253.924)">
        <path
           d="M 0,0 C 1.485,0.7 2.73,1.902 3.474,3.492 L -2.478,5.942 0,0 Z"
           style="fill:#ffffff;fill-opacity:1;fill-rule:nonzero;stroke:none"
           id="path3415"
           inkscape:connector-curvature="0" />
      </g>
    </g>
  </g>
</svg>
